<?xml version="1.0" encoding="iso-8859-1"?>
<!-- Uploaded to: SVGRepo, www.svgrepo.com, Transformed by: SVGRepo Tools -->
<svg fill="#000000" height="800px" width="800px" version="1.1" id="Capa_1" xmlns="http://www.w3.org/2000/svg" xmlns:xlink="http://www.w3.org/1999/xlink" 
	 viewBox="0 0 34.182 34.182" xml:space="preserve">
<g>
	<path d="M16.724,9.965c0.872-1.334,2.199-1.249,2.199-1.249c6.021,0,5.383-5.383,5.383-5.383H22.96
		c0,4.231-4.092,4.092-4.092,4.092c-3.016,0-4.371,1.444-4.966,2.54H0v20.883h34.182V9.965H16.724z M14.907,18.285h4.241v4.244
		h-4.241C14.907,22.528,14.907,18.285,14.907,18.285z M14.907,16.559v-4.243h4.241v4.243H14.907z M8.873,12.316h4.242v4.243H8.873
		V12.316z M8.873,18.285h4.242v4.244H8.873V18.285z M2.865,12.316h4.242v4.243H2.865V12.316z M2.865,18.285h4.242v4.244H2.865
		V18.285z M19.393,28.215H2.742v-4.141h16.651V28.215z M25.368,28.215h-4.243v-4.244h4.243V28.215z M25.368,22.528h-4.243v-4.244
		h4.243V22.528z M25.368,16.559h-4.243v-4.243h4.243V16.559z M31.318,28.215h-4.242v-4.244h4.242V28.215z M31.318,22.528h-4.242
		v-4.244h4.242V22.528z M31.318,16.559h-4.242v-4.243h4.242V16.559z"/>
	<g>
	</g>
	<g>
	</g>
	<g>
	</g>
	<g>
	</g>
	<g>
	</g>
	<g>
	</g>
	<g>
	</g>
	<g>
	</g>
	<g>
	</g>
	<g>
	</g>
	<g>
	</g>
	<g>
	</g>
	<g>
	</g>
	<g>
	</g>
	<g>
	</g>
</g>
<g>
</g>
<g>
</g>
<g>
</g>
<g>
</g>
<g>
</g>
<g>
</g>
<g>
</g>
<g>
</g>
<g>
</g>
<g>
</g>
<g>
</g>
<g>
</g>
<g>
</g>
<g>
</g>
<g>
</g>
</svg>
